# xmcd
# 
# Track frame offsets:
#   150
#   14859
#   33493
#   49455
#   63525
#   83999
#   102570
#   122622
#   140173
#   162513
#   177521
#   193870
#   214658
#   231598
#   250609
#   267572
#   286216
# 
# Disc length: 4054 seconds
# 
# Revision: 2
# Processed by: cddbd v1.5.2PL0 Copyright (c) Steve Scherf et al.
# Submitted via: Synapstar 1.0 
# 
DISCID=150fd411
DTITLE=Various Artist - Country Hits 2007
DYEAR=2007
DGENRE=Country
TTITLE0=Mark Wills - Days of Thunder
TTITLE1=Travis Tritt - You Never Take Me Dancing
TTITLE2=Gretchen Wilson - You Don't Have To Go Home
TTITLE3=Chris Young - You're Gonna Love Me
TTITLE4=Kenny Chesney - Don't Blink
TTITLE5=Chuck Wicks - Stealing Cinderella
TTITLE6=Martina McBride - For These Times
TTITLE7=Blake Shelton - Don't Make Me
TTITLE8=Rascal Flatts - Winner At A Losing Game
TTITLE9=Jo Dee Messina - Biker Chick
TTITLE10=Garth Brooks - More Than A Memory
TTITLE11=Keith Urban - I Told You So
TTITLE12=Trent Tomlinson - Just Might Have Her Radio On
TTITLE13=Dusty Drake - Say Yes
TTITLE14=Dolly Parton - Better Get To Livin'
TTITLE15=Little Big Town - I'm With The Band
TTITLE16=Rodney Atkins - Cleaning This Gun (Come On Boy)
EXTD=MediaType: Karaoke CD+G Producer: chartbuster
EXTT0=
EXTT1=
EXTT2=
EXTT3=
EXTT4=
EXTT5=
EXTT6=
EXTT7=
EXTT8=
EXTT9=
EXTT10=
EXTT11=
EXTT12=
EXTT13=
EXTT14=
EXTT15=
EXTT16=
PLAYORDER=
